<?xml version="1.0" standalone="no"?>
<!DOCTYPE svg PUBLIC "-//W3C//DTD SVG 20010904//EN"
 "http://www.w3.org/TR/2001/REC-SVG-20010904/DTD/svg10.dtd">
<svg version="1.0" xmlns="http://www.w3.org/2000/svg"
 width="1000.000000pt" height="1000.000000pt" viewBox="0 0 1000.000000 1000.000000"
 preserveAspectRatio="xMidYMid meet">
<metadata>
Created by potrace 1.14, written by Peter Selinger 2001-2017
</metadata>
<g transform="translate(0.000000,1000.000000) scale(0.100000,-0.100000)"
fill="#000000" stroke="none">
<path d="M2537 9283 c-149 -253 -2477 -4295 -2477 -4300 0 -4 557 -973 1239
-2153 l1238 -2145 2485 -3 2485 -2 1084 1877 c595 1033 1154 2001 1241 2151
141 244 157 275 147 295 -33 61 -2445 4236 -2461 4260 l-19 27 -2479 0 c-1363
0 -2481 -3 -2483 -7z m4114 -3362 c296 -513 539 -938 539 -943 0 -5 -244 -432
-542 -948 l-542 -940 -1089 2 -1089 3 -540 935 c-297 514 -541 940 -541 946 0
6 242 432 539 947 l539 936 1093 -2 1094 -2 539 -934z"/>
</g>
</svg>
